<?xml version="1.0" encoding="UTF-8" standalone="no"?>
<!-- Created with Inkscape (http://www.inkscape.org/) -->

<svg
   xmlns:dc="http://purl.org/dc/elements/1.1/"
   xmlns:cc="http://creativecommons.org/ns#"
   xmlns:rdf="http://www.w3.org/1999/02/22-rdf-syntax-ns#"
   xmlns:svg="http://www.w3.org/2000/svg"
   xmlns="http://www.w3.org/2000/svg"
   xmlns:sodipodi="http://sodipodi.sourceforge.net/DTD/sodipodi-0.dtd"
   xmlns:inkscape="http://www.inkscape.org/namespaces/inkscape"
   width="594mm"
   height="841mm"
   viewBox="0 0 594 841"
   version="1.1"
   id="svg8"
   inkscape:version="0.92.1 r"
   sodipodi:docname="Poster.svg">
  <defs
     id="defs2" />
  <sodipodi:namedview
     id="base"
     pagecolor="#ffffff"
     bordercolor="#666666"
     borderopacity="1.0"
     inkscape:pageopacity="0.0"
     inkscape:pageshadow="2"
     inkscape:zoom="0.24748737"
     inkscape:cx="979.20407"
     inkscape:cy="1949.3964"
     inkscape:document-units="mm"
     inkscape:current-layer="layer1"
     showgrid="false"
     inkscape:window-width="1920"
     inkscape:window-height="1063"
     inkscape:window-x="0"
     inkscape:window-y="17"
     inkscape:window-maximized="0" />
  <metadata
     id="metadata5">
    <rdf:RDF>
      <cc:Work
         rdf:about="">
        <dc:format>image/svg+xml</dc:format>
        <dc:type
           rdf:resource="http://purl.org/dc/dcmitype/StillImage" />
        <dc:title></dc:title>
      </cc:Work>
    </rdf:RDF>
  </metadata>
  <g
     inkscape:label="Layer 1"
     inkscape:groupmode="layer"
     id="layer1"
     transform="translate(0,544)">
    <flowRoot
       xml:space="preserve"
       id="flowRoot3832"
       style="font-style:normal;font-variant:normal;font-weight:normal;font-stretch:normal;font-size:40px;line-height:1.25;font-family:'DejaVu Serif';-inkscape-font-specification:'DejaVu Serif';letter-spacing:0px;word-spacing:0px;fill:#000000;fill-opacity:1;stroke:none"
       transform="matrix(0.26458333,0,0,0.26458333,-14.373461,-540.25823)"><flowRegion
         id="flowRegion3834"
         style="font-style:normal;font-variant:normal;font-weight:normal;font-stretch:normal;font-family:'DejaVu Serif';-inkscape-font-specification:'DejaVu Serif'"><rect
           id="rect3836"
           width="1451.4285"
           height="291.42859"
           x="102.85714"
           y="104.29705"
           style="font-style:normal;font-variant:normal;font-weight:normal;font-stretch:normal;font-family:'DejaVu Serif';-inkscape-font-specification:'DejaVu Serif'" /></flowRegion><flowPara
         id="flowPara3838"
         style="font-style:normal;font-variant:normal;font-weight:normal;font-stretch:normal;font-size:96px;font-family:'DejaVu Serif';-inkscape-font-specification:'DejaVu Serif'">Building an Online Resource for Candida Tropicalis</flowPara></flowRoot>    <rect
       id="rect3848"
       width="1.5119048"
       height="57.452377"
       x="393.09521"
       y="-510.35712"
       style="stroke-width:0.26458332" />
    <flowRoot
       xml:space="preserve"
       id="flowRoot3858"
       style="font-style:normal;font-variant:normal;font-weight:normal;font-stretch:normal;font-size:40px;line-height:1.25;font-family:'DejaVu Serif';-inkscape-font-specification:'DejaVu Serif';letter-spacing:0px;word-spacing:0px;fill:#000000;fill-opacity:1;stroke:none"
       transform="matrix(0.26458333,0,0,0.26458333,6.5011901,-512.25)"><flowRegion
         id="flowRegion3860"
         style="font-style:normal;font-variant:normal;font-weight:normal;font-stretch:normal;font-family:'DejaVu Serif';-inkscape-font-specification:'DejaVu Serif'"><rect
           id="rect3862"
           width="628.57153"
           height="217.14285"
           x="1491.4285"
           y="127.15421"
           style="font-style:normal;font-variant:normal;font-weight:normal;font-stretch:normal;font-family:'DejaVu Serif';-inkscape-font-specification:'DejaVu Serif'" /></flowRegion><flowPara
         style="font-style:normal;font-variant:normal;font-weight:normal;font-stretch:normal;font-size:32px;font-family:'DejaVu Serif';-inkscape-font-specification:'DejaVu Serif';text-align:center;text-anchor:middle"
         id="flowPara4126">Owen Garland | owg1@aber.ac.uk</flowPara><flowPara
         style="font-style:normal;font-variant:normal;font-weight:normal;font-stretch:normal;font-size:32px;font-family:'DejaVu Serif';-inkscape-font-specification:'DejaVu Serif';text-align:center;text-anchor:middle"
         id="flowPara4124">http://project.owen.cymru</flowPara></flowRoot>    <g
       id="g4050"
       transform="matrix(0.51378235,0,0,0.51378235,406.7804,-512.397)">
      <path
         d="m 202.12251,51.78488 h 1.84282 v 5.21015 c 0,1.27999 0.0482,2.8316 2.44276,2.8316 2.40816,0 2.45633,-1.55159 2.45633,-2.8316 v -5.21015 h 1.84294 v 5.26198 c 0,1.52568 -0.0494,4.22759 -4.29927,4.22759 -4.23631,0 -4.2856,-2.70193 -4.2856,-4.22759 v -5.26198 z"
         id="path5636"
         inkscape:connector-curvature="0"
         style="fill:#373535;fill-rule:nonzero" />
      <path
         d="m 213.65407,51.78488 h 2.11192 l 5.22003,6.92961 h 0.0247 v -6.92961 h 1.7688 v 9.23042 h -2.0762 l -5.25581,-6.9296 h -0.0247 v 6.9296 h -1.76874 z"
         id="path5640"
         inkscape:connector-curvature="0"
         style="fill:#373535;fill-rule:nonzero" />
      <path
         d="m 226.37529,51.78704 h 1.84161 v 9.23042 h -1.84161 z"
         id="path5642"
         inkscape:connector-curvature="0"
         style="fill:#373535;fill-rule:nonzero" />
      <path
         d="m 230.14546,51.78488 h 2.06262 l 2.86243,7.39497 2.79944,-7.39497 h 1.98978 l -3.85608,9.23042 H 234.051 l -3.90553,-9.23042 h 2e-5 -2e-5 z"
         id="path5646"
         inkscape:connector-curvature="0"
         style="fill:#373535;fill-rule:nonzero" />
      <path
         d="m 241.78778,51.78488 h 7.6147 v 1.44786 h -5.77307 v 2.32802 h 5.5397 v 1.44665 h -5.5397 v 2.56 h 5.87045 v 1.44792 h -7.71208 v -9.23042 -1e-5 -1e-5 z"
         id="path5650"
         inkscape:connector-curvature="0"
         style="fill:#373535;fill-rule:nonzero" />
      <path
         d="m 257.71353,55.92191 c 1.01965,0 1.57257,-0.32343 1.57257,-1.35655 0,-0.95663 -0.60236,-1.3331 -1.57257,-1.3331 h -3.18083 v 2.68964 h 3.18083 z m -5.02246,-4.1375 h 5.55081 c 2.23541,0 2.95996,1.07387 2.95996,2.50945 0,1.20224 -0.62701,1.95148 -1.44913,2.223 v 0.02592 c 1.04306,0.23204 1.27631,1.18869 1.27631,2.4946 0,0.43943 0.0136,1.47504 0.36908,1.9774 h -1.98972 c -0.13467,-0.25667 -0.22098,-0.72332 -0.22098,-1.39602 0,-1.31827 -0.17154,-2.249 -1.52316,-2.249 h -3.13153 v 3.645 h -1.84163 v -9.23035 -2e-5 10e-6 h -3e-5 z"
         id="path5654"
         inkscape:connector-curvature="0"
         style="fill:#373535;fill-rule:nonzero" />
      <path
         d="m 267.90396,51.52708 c 1.35028,0 4.05234,0.25795 4.28558,2.93405 h -1.98856 c -0.0618,-0.71097 -0.67639,-1.48619 -2.21194,-1.48619 -1.22687,0 -2.03784,0.39996 -2.03784,1.26643 0,2.17124 6.53329,0.09011 6.53329,4.03383 0,2.37857 -2.34528,2.99943 -4.21277,2.99943 -3.15613,0 -4.42148,-1.30591 -4.44617,-3.24504 h 1.99109 c 0.0481,1.21461 1.00711,1.7972 2.51682,1.7972 1.11838,0 2.16248,-0.34935 2.16248,-1.35775 0,-2.28847 -6.46039,-0.29751 -6.46039,-4.08567 0,-2.05522 1.73169,-2.85628 3.86841,-2.85628"
         id="path5658"
         inkscape:connector-curvature="0"
         style="fill:#373535;fill-rule:nonzero" />
      <path
         d="m 275.40448,51.78704 h 1.84161 v 9.23042 h -1.84161 z"
         id="path5660"
         inkscape:connector-curvature="0"
         style="fill:#373535;fill-rule:nonzero" />
      <path
         d="m 282.66296,53.2328 h -3.29074 v -1.44785 h 8.42435 v 1.44785 h -3.29074 v 7.7825 h -1.84286 v -7.7825 z"
         id="path5664"
         inkscape:connector-curvature="0"
         style="fill:#373535;fill-rule:nonzero" />
      <path
         d="m 292.77011,57.49912 -3.83142,-5.71379 h 2.24774 l 2.50436,4.11037 2.5058,-4.11037 h 2.24777 l -3.83267,5.71379 v 3.51664 h -1.84158 z"
         id="path5668"
         inkscape:connector-curvature="0"
         style="fill:#373535;fill-rule:nonzero" />
      <path
         d="m 80.43777,4.52536 h 2.96001 c 1.04424,0 1.60831,-0.29751 1.60831,-1.39602 0,-1.13806 -0.76162,-1.42201 -1.47379,-1.42201 H 80.43776 V 4.52536 Z M 78.59494,0.25949 h 5.40398 c 2.1489,0 2.85001,1.38245 2.85001,2.86986 0,1.40837 -0.84795,2.84386 -2.8253,2.84386 H 80.43777 V 9.48984 H 78.59494 V 0.25949 h 2e-5 z"
         id="path5672"
         inkscape:connector-curvature="0"
         style="fill:#373535;fill-rule:nonzero" />
      <path
         d="m 94.4016,4.39615 c 1.01952,0 1.57253,-0.32343 1.57253,-1.35774 0,-0.95664 -0.60235,-1.3319 -1.57253,-1.3319 h -3.18095 v 2.68965 h 3.18095 z m -5.02258,-4.1375 h 5.55084 c 2.23544,0 2.95995,1.07387 2.95995,2.50816 0,1.20225 -0.62704,1.95276 -1.44913,2.22428 v 0.02592 c 1.04303,0.23205 1.27754,1.18869 1.27754,2.4946 0,0.43945 0.01241,1.47384 0.36784,1.97868 H 96.09628 C 95.96055,9.23105 95.87534,8.76568 95.87534,8.093 c 0,-1.31826 -0.17155,-2.249 -1.5231,-2.249 h -3.13161 v 3.64629 h -1.84161 v -9.23163 -1e-5 h -1e-5 z"
         id="path5676"
         inkscape:connector-curvature="0"
         style="fill:#373535;fill-rule:nonzero" />
      <path
         d="m 101.76376,0.26202 h 1.84161 v 9.23042 h -1.84161 z"
         id="path5678"
         inkscape:connector-curvature="0"
         style="fill:#373535;fill-rule:nonzero" />
      <path
         d="m 107.77563,0.25926 h 7.29491 v 1.44785 h -5.45207 v 2.32674 h 5.15831 v 1.44792 h -5.15831 v 4.00791 h -1.84283 V 0.25926 Z"
         id="path5682"
         inkscape:connector-curvature="0"
         style="fill:#373535;fill-rule:nonzero" />
      <path
         d="m 120.26614,5.97328 -3.83139,-5.7138 h 2.24651 l 2.50562,4.11037 2.50575,-4.11037 h 2.24773 l -3.8326,5.7138 v 3.51663 h -1.84163 V 5.97328 Z"
         id="path5686"
         inkscape:connector-curvature="0"
         style="fill:#373535;fill-rule:nonzero" />
      <path
         d="m 131.38022,6.2e-4 c 1.35161,0 4.05359,0.25796 4.28564,2.93404 h -1.98849 c -0.0618,-0.71097 -0.67517,-1.48619 -2.21074,-1.48619 -1.2281,0 -2.03905,0.40118 -2.03905,1.26643 0,2.17245 6.53452,0.09138 6.53452,4.03383 0,2.37857 -2.34651,2.99944 -4.2128,2.99944 -3.15619,0 -4.42265,-1.30591 -4.44609,-3.24504 h 1.98976 c 0.0482,1.21581 1.00719,1.79719 2.51685,1.79719 1.1183,0 2.1613,-0.34935 2.1613,-1.35774 0,-2.28847 -6.45925,-0.29751 -6.45925,-4.08566 0,-2.05522 1.7317,-2.85629 3.86835,-2.85629"
         id="path5690"
         inkscape:connector-curvature="0"
         style="fill:#373535;fill-rule:nonzero" />
      <path
         d="m 148.22751,9.4896 h -1.08127 l -0.25803,-1.20225 c -0.71222,0.90473 -1.96507,1.4602 -3.34012,1.4602 -3.70918,0 -5.15825,-2.27484 -5.15825,-4.87317 0,-2.59827 1.53542,-4.87438 5.10889,-4.87438 2.66618,0 4.37201,1.42321 4.56833,3.23269 h -1.98978 c -0.33084,-1.25408 -1.43559,-1.78484 -2.62785,-1.78484 -2.27122,0 -3.14394,1.46149 -3.14394,3.49071 0,2.45633 1.49857,3.36114 3.04636,3.36114 1.87871,0 2.739,-0.90481 3.03282,-2.4292 h -2.48103 V 4.42138 h 4.32387 z"
         id="path5694"
         inkscape:connector-curvature="0"
         style="fill:#373535;fill-rule:nonzero" />
      <path
         d="m 159.15749,4.8744 c 0,-2.02923 -1.17885,-3.42653 -3.2426,-3.42653 -2.06259,0 -3.24268,1.39729 -3.24268,3.42653 0,2.02923 1.1801,3.42653 3.24268,3.42653 2.06377,0 3.2426,-1.39729 3.2426,-3.42653 m -8.39972,0 c 0,-2.59826 1.44916,-4.87317 5.15714,-4.87317 3.70914,0 5.15828,2.27491 5.15828,4.87317 0,2.59827 -1.44914,4.87317 -5.15828,4.87317 -3.70796,0 -5.15714,-2.27491 -5.15714,-4.87317"
         id="path5698"
         inkscape:connector-curvature="0"
         style="fill:#373535;fill-rule:nonzero" />
      <path
         d="m 163.60376,0.25926 h 1.84167 v 7.70476 h 5.32985 v 1.52567 h -7.17152 V 0.25927 Z"
         id="path5702"
         inkscape:connector-curvature="0"
         style="fill:#373535;fill-rule:nonzero" />
      <path
         d="m 81.02113,29.21215 c 0,2.55754 0,9.17849 0.03954,9.68459 0.1165,1.58983 0.01777,1.9774 1.06448,2.47982 0.9292,0.42709 2.26629,0.76283 2.8884,0.76283 2.24749,0 5.29869,-0.65303 5.29869,-4.88068 0,-4.22766 -2.65594,-5.92582 -3.75232,-6.44932 -1.09638,-0.5235 -1.95234,-0.39984 -2.76697,-0.55664 -0.4276,-0.07654 -2.03424,-0.07654 -2.57735,-0.07654 -0.11649,0 -0.19456,0.07654 -0.19456,0.23335 l 6e-5,-1.19742 v 0 10e-6 h 2e-5 z m -6e-5,-0.62575 c 0,0.23077 0.07806,0.30987 0.23209,0.34807 0.19553,0.04079 0.71693,0.15555 1.99472,0.15555 1.90086,0 2.63948,-0.07902 3.33663,-0.85408 0.73862,-0.81476 1.41702,-1.93801 1.41702,-3.53031 0,-2.51925 -1.49495,-5.41094 -4.90868,-5.41094 -0.38609,0 -1.10204,0.03713 -1.64412,0.15434 -0.31105,0.079 -0.4276,0.15425 -0.4276,0.34809 l -6e-5,8.78938 v -10e-5 h -2e-5 z m -2.94849,-0.53757 c 0,-5.12004 0,-6.04945 -0.07607,-7.09745 -0.07703,-1.12572 -0.27351,-1.74664 -1.39629,-1.90207 -0.27151,-0.0395 -0.85318,-0.07534 -1.16322,-0.07534 -0.11752,0 -0.27254,-0.079 -0.27254,-0.19374 0,-0.19384 0.15501,-0.37159 0.5431,-0.37159 1.55233,0 3.76426,0.079 3.95779,0.079 0.8127,0 2.30482,-0.079 3.89365,-0.079 5.70165,0 7.17697,3.19941 7.17697,4.94359 0,2.59705 -1.31349,4.49355 -3.05632,6.04636 2.59698,0.77634 5.61383,3.07046 5.61383,6.79442 0,3.68209 -2.6349,6.93001 -8.45505,6.93001 -0.62012,0 -1.76267,-0.03949 -2.8479,-0.11486 -1.08524,-0.04195 -2.05492,-0.0789 -2.20898,-0.0789 -0.07901,0 -0.7001,0.03695 -1.39924,0.03695 -0.69714,0.04195 -1.51183,0.07771 -2.05396,0.07771 -0.35052,0 -0.54406,-0.07771 -0.54406,-0.27146 0,-0.11603 0.07896,-0.19374 0.27152,-0.19374 0.31009,0 0.73963,-0.11613 1.04775,-0.15562 0.66062,-0.11722 0.73565,-0.8529 0.89169,-1.82191 0.19353,-1.35658 0.07733,-3.55402 0.07733,-6.73615 v -5.81621 0 l -2e-5,10e-6 z"
         id="path5706"
         inkscape:connector-curvature="0"
         style="fill:#373535;fill-rule:nonzero" />
      <path
         d="m 99.23313,27.78796 c 0,-5.12005 0,-6.0495 -0.07768,-7.09745 -0.07653,-1.1257 -0.27031,-1.66882 -1.39484,-1.8219 -0.27158,-0.03948 -0.85415,-0.07896 -1.16528,-0.07896 -0.11475,0 -0.27031,-0.15429 -0.27031,-0.26911 0,-0.19506 0.15556,-0.2728 0.54311,-0.2728 1.55039,0 3.76105,0.07775 3.95609,0.07775 0.23206,0 7.36777,0.03707 8.14545,0 0.65791,-0.03827 1.27876,-0.15678 1.55161,-0.19626 0.1543,-0.03579 0.30859,-0.15429 0.46402,-0.15429 0.11736,0 0.1543,0.15429 0.1543,0.31228 0,0.23332 -0.19123,0.61966 -0.27026,1.55038 -0.0395,0.31099 -0.11607,1.78235 -0.19376,2.17365 -0.0396,0.1506 -0.1543,0.34806 -0.31111,0.34806 -0.19503,0 -0.27031,-0.15798 -0.27031,-0.42709 0,-0.23325 -0.0393,-0.77515 -0.19359,-1.16518 -0.23349,-0.54311 -0.58389,-0.77275 -2.44403,-1.00599 -0.58144,-0.07903 -4.53867,-0.11851 -4.92638,-0.11851 -0.15429,0 -0.19372,0.11851 -0.19372,0.35176 v 8.95642 c 0,0.23325 0,0.34807 0.19372,0.34807 0.42726,0 4.92638,0 5.70152,-0.07527 0.81456,-0.07902 1.31956,-0.11851 1.66889,-0.46664 0.23203,-0.23325 0.38736,-0.42701 0.50481,-0.42701 0.11596,0 0.19131,0.07896 0.19131,0.27272 0,0.19384 -0.19131,0.73937 -0.27032,1.82318 -0.0777,0.66034 -0.15675,1.90085 -0.15675,2.1317 0,0.27151 -0.0752,0.61966 -0.30859,0.61966 -0.1567,0 -0.23325,-0.11481 -0.23325,-0.30859 0,-0.31107 0,-0.66042 -0.15437,-1.08623 -0.116,-0.46664 -0.42707,-0.85419 -1.74657,-1.00599 -0.92949,-0.1173 -4.57568,-0.15678 -5.1571,-0.15678 -0.19371,0 -0.23331,0.1148 -0.23331,0.23325 v 2.75135 c 0,1.12697 -0.0395,4.96576 0,5.62618 0.0765,2.20694 0.69872,2.63652 4.07338,2.63652 0.89122,0 2.51925,0 3.41167,-0.35055 0.89249,-0.38761 1.35902,-0.969 1.55161,-2.28598 0.0779,-0.38762 0.15549,-0.50485 0.35059,-0.50485 0.19256,0 0.23197,0.27152 0.23197,0.50485 0,0.23325 -0.27158,2.47975 -0.46656,3.17965 -0.23204,0.8529 -0.58009,0.8529 -1.89967,0.8529 -2.56004,0 -4.53741,-0.07776 -5.93472,-0.11481 -1.43553,-0.07896 -2.32668,-0.07896 -2.83031,-0.07896 -0.0777,0 -0.73685,0 -1.47385,0.03699 -0.65912,0.04197 -1.4342,0.07901 -1.97855,0.07901 -0.34933,0 -0.54316,-0.07901 -0.54316,-0.27279 0,-0.11602 0.07787,-0.27031 0.27151,-0.27031 0.30984,0 0.73698,-0.11722 1.0479,-0.15308 0.66045,-0.11843 0.737,-0.77885 0.8913,-1.74777 0.19382,-1.35655 0.19382,-3.95359 0.19382,-7.137 v -5.81619 0 h -1.1e-4 -6e-5 l -6e-5,2e-5 h -3e-5 l -10e-6,-10e-6 z"
         id="path5710"
         inkscape:connector-curvature="0"
         style="fill:#373535;fill-rule:nonzero" />
      <path
         d="m 120.90295,30.53749 c 0,0.19377 0.0778,0.31228 0.23206,0.42709 0.50483,0.2728 2.24531,0.50484 3.75731,0.50484 0.81222,0 1.74171,-0.03827 2.55391,-0.58138 1.16147,-0.77395 2.05269,-2.51801 2.05269,-5.03116 0,-4.10668 -2.24773,-6.46793 -5.88656,-6.46793 -1.00482,0 -2.08974,0.11474 -2.43661,0.19377 -0.15676,0.07903 -0.2728,0.19377 -0.2728,0.38761 v 10.56715 z m 22.90569,12.58282 h -5.90881 c -1.93544,0 -2.78839,-0.19379 -3.63881,-0.65666 -1.47134,-0.77516 -2.71188,-2.36124 -4.64732,-4.83739 -1.43306,-1.78483 -2.94139,-3.91284 -3.67831,-4.8028 -0.15303,-0.15429 -0.23083,-0.19378 -0.46415,-0.19378 l -4.33622,-0.07902 c -0.1543,0 -0.23205,0.07902 -0.23205,0.2728 v 0.77515 c 0,3.17227 0,5.72856 0.15551,7.08269 0.11727,0.96893 0.30984,1.58858 1.3541,1.74287 0.46535,0.07654 1.19979,0.1555 1.51086,0.1555 0.23205,0 0.27031,0.15429 0.27031,0.27159 0,0.15429 -0.15429,0.26904 -0.5419,0.26904 -1.85892,0 -4.02637,-0.11475 -4.18192,-0.11475 -0.0383,0 -2.32181,0.11475 -3.36604,0.11475 -0.3494,0 -0.54189,-0.07775 -0.54189,-0.26904 0,-0.1173 0.0753,-0.27159 0.27035,-0.27159 0.30981,0 0.73441,-0.07896 1.04668,-0.1555 0.65665,-0.15429 0.73444,-0.77396 0.88995,-1.74287 0.19257,-1.35414 0.19257,-3.94869 0.19257,-7.12216 v -5.80759 c 0,-5.11139 0,-6.04084 -0.0778,-7.0851 -0.0765,-1.12322 -0.27032,-1.66512 -1.39357,-1.81942 -0.27151,-0.03699 -0.85294,-0.07527 -1.1628,-0.07527 -0.11723,0 -0.27032,-0.15799 -0.27032,-0.2728 0,-0.19377 0.15309,-0.26911 0.54311,-0.26911 1.54794,0 3.83139,0.07533 4.02528,0.07533 0.34927,0 3.21416,-0.07533 4.25969,-0.07533 2.16751,0 4.56824,0.19257 6.34819,1.43187 0.8517,0.61717 2.3625,2.20447 2.3625,4.49053 0,2.43659 -1.00844,4.79911 -4.18195,7.50842 2.78835,3.48454 5.1497,6.468 7.12457,8.51698 1.81825,1.85889 2.9427,2.16875 3.79193,2.28598 0.65918,0.11602 3.91281,0.10366 4.10791,0.10366"
         id="path5714"
         inkscape:connector-curvature="0"
         style="fill:#373535;fill-rule:nonzero" />
      <path
         d="m 159.27924,42.71817 c -0.46655,-0.22956 -0.50609,-0.34807 -0.50609,-1.23804 0,-1.62934 0.15804,-2.94889 0.19749,-3.49072 0,-0.34935 0.0752,-0.54559 0.26912,-0.54559 0.19376,0 0.31224,0.11851 0.31224,0.38761 0,0.27151 0,0.73807 0.11484,1.20473 0.54184,2.402 3.10307,3.2549 5.39276,3.2549 3.37349,0 5.11633,-1.89837 5.11633,-4.38068 0,-2.36494 -1.2775,-3.49192 -4.30295,-5.74092 l -1.55275,-1.16269 c -3.6833,-2.75263 -4.88673,-4.77199 -4.88673,-7.05798 0,-3.87833 3.06485,-6.20748 7.56401,-6.20748 1.35657,0 2.71555,0.19377 3.53023,0.38754 0.65671,0.15799 0.92947,0.15799 1.20221,0.15799 0.27158,0 0.34813,0.03955 0.34813,0.23332 0,0.15429 -0.15428,1.24052 -0.15428,3.49072 0,0.50236 -0.0395,0.73568 -0.2728,0.73568 -0.23331,0 -0.2728,-0.15678 -0.30858,-0.42709 -0.0395,-0.38761 -0.31229,-1.27999 -0.50616,-1.62934 -0.23326,-0.38634 -1.35651,-1.62805 -4.42012,-1.62805 -2.48222,0 -4.53867,1.24172 -4.53867,3.56598 0,2.09591 1.04672,3.29815 4.42264,5.58663 l 0.96651,0.66034 c 4.15108,2.83038 5.58658,5.12006 5.58658,7.94794 0,1.94162 -0.73564,4.03631 -3.17961,5.62241 -1.43558,0.93314 -3.56844,1.16646 -5.42862,1.16646 -1.58986,0 -3.56975,-0.23331 -4.96573,-0.89366"
         id="path5718"
         inkscape:connector-curvature="0"
         style="fill:#373535;fill-rule:nonzero" />
      <path
         d="m 231.81505,18.78927 c -0.11479,0 -0.77519,0.03948 -1.1628,0.15429 -1.00838,0.35176 -1.55275,1.66882 -2.21059,3.49071 -1.51335,4.18813 -4.88687,14.66148 -6.24336,18.34596 -0.89238,2.44404 -1.08627,2.83158 -1.4738,2.83158 -0.34813,0 -0.66039,-0.42709 -1.12569,-1.70708 l -6.66916,-18.03488 c -1.16525,2.87106 -5.78291,14.933 -7.0209,17.99789 -0.58138,1.39602 -0.8147,1.74407 -1.20224,1.74407 -0.34818,0 -0.62093,-0.34806 -1.31955,-2.59826 l -6.0495,-19.54821 c -0.54558,-1.74415 -0.89117,-2.17004 -1.78358,-2.48232 -0.46661,-0.15429 -0.80359,-0.19377 -1.03444,-0.19377 -0.15302,0 -0.31099,-0.11481 -0.31099,-0.30859 0,-0.15429 0.23325,-0.23332 0.54184,-0.23332 1.78612,0 3.16853,0.07903 3.51666,0.07903 0.31224,0 1.86261,-0.07903 3.56844,-0.07903 0.46788,0 0.62218,0.07903 0.62218,0.23332 0,0.19377 -0.19385,0.30859 -0.3506,0.30859 -0.27158,0 -0.81218,0 -1.20221,0.19377 -0.23082,0.07903 -0.46414,0.2728 -0.46414,0.69989 0,0.42709 0.27037,1.58986 0.6604,3.06362 0.54184,2.09591 4.03256,14.1949 4.45845,15.55144 h 0.0802 l 7.13326,-18.42129 c 0.50235,-1.32076 0.73933,-1.51453 0.93066,-1.51453 0.23207,0 0.5049,0.42709 0.93071,1.55279 l 6.67165,18.38303 h 0.15431 c 0.85289,-2.71308 3.91768,-12.25698 5.11998,-16.48337 0.3481,-1.24173 0.38759,-1.62934 0.38759,-2.05266 0,-0.58508 -0.27031,-0.97269 -1.82309,-0.97269 -0.19258,0 -0.30861,-0.19377 -0.30861,-0.30859 0,-0.15429 0.1543,-0.23332 0.58138,-0.23332 1.74411,0 3.17969,0.07902 3.49075,0.07902"
         id="path5722"
         inkscape:connector-curvature="0"
         style="fill:#373535;fill-rule:nonzero" />
      <path
         d="m 232.15729,18.32586 c 0.22955,0 1.62561,-0.07903 2.94637,-0.07903 0.38754,0 0.46289,0.07903 0.46289,0.23332 0,0.11481 -0.22963,0.23332 -0.54184,0.34806 -0.27037,0.11602 -0.42708,0.2728 -0.42708,0.5456 0,0.46288 0.23697,0.85049 0.46649,1.27751 l 6.20389,10.2759 c 0.69983,-1.39482 4.96567,-8.45271 5.58658,-9.54021 0.42709,-0.73568 0.58139,-1.27751 0.58139,-1.70461 0,-0.46657 -0.1543,-0.73816 -0.54184,-0.85418 -0.31232,-0.07896 -0.50615,-0.23325 -0.50615,-0.38754 0,-0.11481 0.19383,-0.19384 0.54436,-0.19384 0.8913,0 2.09344,0.07903 2.36623,0.07903 0.23203,0 2.6736,-0.07903 3.3327,-0.07903 0.23328,0 0.42709,0.07903 0.42709,0.19384 0,0.15429 -0.15428,0.34806 -0.42709,0.34806 -0.38754,0 -1.04797,0.11851 -1.58859,0.42709 -0.65779,0.38754 -0.97025,0.73567 -1.70457,1.62934 -1.12694,1.31698 -5.93471,9.07365 -6.63457,10.47086 -0.58138,1.16276 -0.42709,2.21321 -0.42709,3.29695 v 2.83159 c 0,0.54431 0,1.93913 0.11848,3.29687 0.0752,0.969 0.30861,1.58986 1.31584,1.74665 0.46782,0.07526 1.24168,0.15429 1.55402,0.15429 0.19371,0 0.27023,0.15429 0.27023,0.27031 0,0.15678 -0.1937,0.27151 -0.5406,0.27151 -1.90215,0 -4.11168,-0.11474 -4.30536,-0.11474 -0.15683,0 -2.32791,0.11474 -3.33766,0.11474 -0.38634,0 -0.54306,-0.07775 -0.54306,-0.27151 0,-0.11602 0.079,-0.27031 0.27145,-0.27031 0.31233,0 0.69987,-0.07903 1.00845,-0.15429 0.69997,-0.15679 0.93323,-0.77765 1.00856,-1.74665 0.079,-1.35774 0.079,-2.75256 0.079,-3.29687 v -2.83159 c 0,-1.78364 -0.23326,-2.44397 -0.73808,-3.37349 -0.27039,-0.50484 -4.92014,-7.80963 -6.05086,-9.57969 -1.73416,-2.71557 -1.62802,-1.9774 -2.24893,-2.40449 -0.50243,-0.31107 -1.16277,-0.46657 -1.43564,-0.46657"
         id="path5726"
         inkscape:connector-curvature="0"
         style="fill:#373535;fill-rule:nonzero" />
      <path
         d="m 193.10464,18.32308 c 0,1.00848 -0.11481,3.45245 -0.11481,3.83878 0,0.2728 -0.15672,0.42709 -0.31224,0.42709 -0.15306,0 -0.22958,-0.11481 -0.26913,-0.57769 L 192.369,21.6595 c -0.11484,-1.00847 -0.85292,-1.74415 -4.11162,-1.82191 l -2.71553,-0.07654 V 33.6042 c 0,3.18333 0,5.78039 0.1543,7.13693 0.1185,0.969 0.27278,1.58986 1.31955,1.74785 0.4641,0.07406 1.24168,0.15309 1.55029,0.15309 0.23337,0 0.27284,0.15429 0.27284,0.27031 0,0.1567 -0.15434,0.27279 -0.54437,0.27279 -1.8602,0 -4.03377,-0.11609 -4.22768,-0.11609 -0.15428,0 -2.51804,0.11609 -3.52769,0.11609 -0.38634,0 -0.54192,-0.07902 -0.54192,-0.27279 0,-0.11602 0.0766,-0.22963 0.26913,-0.22963 0.30977,0 0.69984,-0.07896 1.00963,-0.15799 0.69867,-0.15429 0.89369,-0.81464 1.00972,-1.78363 0.15308,-1.35654 0.15308,-3.95359 0.15308,-7.13693 V 19.76105 l -3.37349,0.07654 c -2.13417,0.03828 -2.94879,0.2716 -3.45114,1.04675 -0.3876,0.58138 -0.42708,0.81463 -0.54312,1.04795 -0.0777,0.26911 -0.19504,0.30859 -0.35054,0.30859 -0.0765,0 -0.23204,-0.07903 -0.23204,-0.26911 0,-0.35176 0.69862,-3.3759 0.73808,-3.6487 l 4.53499,0.0025 h 9.77722 l 3.56595,-0.0025 h -2e-5 z"
         id="path5730"
         inkscape:connector-curvature="0"
         style="fill:#373535;fill-rule:nonzero" />
      <path
         d="m 296.71967,33.60458 c 0,3.18213 0.0395,5.7792 0.19379,7.13694 0.11478,0.96899 0.19382,1.58985 1.24185,1.74664 0.46646,0.07527 1.24164,0.15429 1.51193,0.15429 0.23456,0 0.30978,0.1543 0.30978,0.27031 0,0.15678 -0.19254,0.27151 -0.58008,0.27151 -1.86273,0 -4.03387,-0.11474 -4.22638,-0.11474 -0.15549,0 -2.36874,0.11474 -3.37347,0.11474 -0.39127,0 -0.54556,-0.07775 -0.54556,-0.27151 0,-0.11602 0.079,-0.27031 0.27277,-0.27031 0.30859,0 0.6987,-0.07902 1.00848,-0.15429 0.69623,-0.15679 0.81354,-0.8147 0.92947,-1.78612 0.15671,-1.35654 0.15671,-3.84007 0.15671,-7.01844 v -3.29695 c 0,-0.15549 -0.079,-0.19505 -0.19373,-0.19505 h -14.23444 c -0.11728,0 -0.1925,0.03955 -0.1925,0.19505 v 3.29695 c 0,3.17837 0,5.70016 0.1543,7.0579 0.11475,0.96899 0.23325,1.58986 1.24167,1.74664 0.50244,0.07528 1.23932,0.15429 1.55045,0.15429 0.19366,0 0.27142,0.1543 0.27142,0.27032 0,0.15678 -0.15427,0.27151 -0.54422,0.27151 -1.89853,0 -4.0697,-0.11474 -4.22641,-0.11474 -0.19507,0 -2.36502,0.11474 -3.41299,0.11474 -0.34811,0 -0.54187,-0.07775 -0.54187,-0.27151 0,-0.11602 0.0752,-0.27032 0.26907,-0.27032 0.31229,0 0.73941,-0.07901 1.048,-0.15429 0.66031,-0.15678 0.73563,-0.77765 0.89355,-1.74664 0.19397,-1.35774 0.19397,-3.9548 0.19397,-7.13694 v -5.81618 c 0,-5.12005 0,-6.0495 -0.0803,-7.09745 -0.0754,-1.12698 -0.27158,-1.66889 -1.39478,-1.82318 -0.27036,-0.03948 -0.85428,-0.07896 -1.16284,-0.07896 -0.11853,0 -0.27283,-0.15429 -0.27283,-0.2691 0,-0.19377 0.1543,-0.2728 0.54556,-0.2728 1.55042,0 3.72037,0.07903 3.91547,0.07903 0.15665,0 2.32785,-0.07903 3.37582,-0.07903 0.3877,0 0.54199,0.07903 0.54199,0.2728 0,0.11481 -0.1543,0.2691 -0.27026,0.2691 -0.23575,0 -0.46661,0 -0.85657,0.07896 -0.92947,0.19384 -1.12332,0.66041 -1.20105,1.82318 -0.037,1.04795 -0.037,2.05515 -0.037,7.17641 v 0.6962 c 0,0.19377 0.0751,0.19377 0.19254,0.19377 h 14.23444 c 0.11475,0 0.19373,0 0.19373,-0.19377 v -0.6962 c 0,-5.12125 -0.0421,-6.12845 -0.079,-7.17641 -0.0778,-1.12698 -0.23203,-1.66889 -1.35522,-1.82318 -0.27283,-0.03948 -0.85428,-0.07896 -1.16644,-0.07896 -0.15433,0 -0.26904,-0.15429 -0.26904,-0.2691 0,-0.19377 0.15424,-0.2728 0.54166,-0.2728 1.51077,0 3.724,0.07903 3.87964,0.07903 0.19263,0 2.36377,-0.07903 3.3721,-0.07903 0.38782,0 0.5838,0.07903 0.5838,0.2728 0,0.11481 -0.15671,0.2691 -0.31097,0.2691 -0.23337,0 -0.42712,0 -0.85428,0.07896 -0.89233,0.19384 -1.08606,0.66041 -1.16263,1.82318 -0.079,1.04795 -0.079,1.9774 -0.079,7.09745 v 5.81618 1e-5 10e-6 z"
         id="path5734"
         inkscape:connector-curvature="0"
         style="fill:#373535;fill-rule:nonzero" />
      <path
         d="m 143.32646,42.56688 c 0,0 0.48996,-0.0037 1.11092,-0.07902 0.62085,-0.07775 0.92944,-0.77757 1.00838,-1.74656 0.0779,-1.35654 0.0779,-2.75256 0.0779,-3.29695 v -2.8315 c 0,-1.78364 -0.23457,-2.44404 -0.73819,-3.37349 -0.27156,-0.50484 -4.88672,-7.83313 -6.04947,-9.57969 -0.81474,-1.24172 -1.62933,-1.9774 -2.24905,-2.40449 -0.50481,-0.31107 -1.16267,-0.46536 -1.43547,-0.46536 -0.19382,0 -0.34932,-0.1555 -0.34932,-0.30979 0,-0.15429 0.11604,-0.23211 0.42581,-0.23211 0.66037,0 3.22035,0.07782 3.37465,0.07782 0.23338,0 1.62936,-0.07782 2.94766,-0.07782 0.38762,0 0.46533,0.07782 0.46533,0.23211 0,0.11602 -0.2308,0.23325 -0.54434,0.34806 -0.27026,0.11602 -0.42455,0.2728 -0.42455,0.5456 0,0.46288 0.23325,0.85042 0.46529,1.27751 l 6.20502,10.2759 c 0.69992,-1.39482 4.96327,-8.45279 5.58534,-9.54021 0.42714,-0.73568 0.58144,-1.27758 0.58144,-1.70461 0,-0.46537 -0.1543,-0.73816 -0.54063,-0.85418 -0.31224,-0.07775 -0.50609,-0.23205 -0.50609,-0.38634 0,-0.11602 0.19385,-0.19384 0.54185,-0.19384 0.89368,0 2.09595,0.07782 2.36873,0.07782 0.22963,0 2.67233,-0.07782 3.33272,-0.07782 0.23326,0 0.42709,0.07782 0.42709,0.19384 0,0.15429 -0.15431,0.34806 -0.42709,0.34806 -0.38759,0 -1.04677,0.1173 -1.58987,0.42709 -0.66034,0.38634 -0.96892,0.73568 -1.70337,1.62805 -1.12695,1.31706 -5.93591,9.07492 -6.63458,10.47094 -0.5813,1.16277 -0.427,2.21313 -0.427,3.29695 v 2.8315 c 0,0.5444 0,1.94041 0.11476,3.29696 0.079,0.96899 0.31226,1.58986 1.31949,1.74656 0.4653,0.07533 1.24174,0.15429 1.55032,0.15429 0.19507,0 0.2728,0.1543 0.2728,0.27039 0,0.15669 -0.19257,0.27272 -0.5419,0.27272 -1.90085,0 -4.11156,-0.11602 -4.30536,-0.11602 -0.15549,0 -2.38971,0.05183 -3.39943,0.05183"
         id="path5738"
         inkscape:connector-curvature="0"
         style="fill:#373535;fill-rule:nonzero" />
      <path
         d="m 193.11314,18.32308 c 0,1.00848 -0.11481,3.45245 -0.11481,3.83878 0,0.2728 -0.15797,0.42709 -0.31227,0.42709 -0.15431,0 -0.22957,-0.11481 -0.26912,-0.57769 l -0.0395,-0.35176 c -0.11604,-1.00847 -0.85414,-1.74415 -4.1116,-1.82191 l -2.71677,-0.07654 V 33.6042 c 0,3.18333 0,5.78039 0.15552,7.13693 0.11734,0.969 0.27162,1.58986 1.31955,1.74785 0.46289,0.07406 1.2417,0.15309 1.55034,0.15309 0.23332,0 0.27159,0.15429 0.27159,0.27031 0,0.1567 -0.15309,0.27279 -0.54309,0.27279 -1.86021,0 -4.03384,-0.11609 -4.22769,-0.11609 -0.15549,0 -2.51926,0.11609 -3.52776,0.11609 -0.38762,0 -0.5419,-0.07902 -0.5419,-0.27279 0,-0.11602 0.0765,-0.22963 0.2691,-0.22963 0.3098,0 0.69992,-0.07896 1.0085,-0.15799 0.69859,-0.15429 0.89366,-0.81464 1.00966,-1.78363 0.1543,-1.35654 0.1543,-3.95359 0.1543,-7.13693 V 19.76105 l -3.37465,0.07654 c -2.1342,0.03828 -2.94888,0.2716 -3.45126,1.04675 -0.38754,0.58138 -0.42708,0.81463 -0.54184,1.04795 -0.079,0.26911 -0.19504,0.30859 -0.35054,0.30859 -0.0765,0 -0.23335,-0.07903 -0.23335,-0.26911 0,-0.35176 0.69865,-3.3759 0.73819,-3.6487 l 4.53619,0.0025 h 9.77591 l 3.56725,-0.0025 h 2e-5 v 10e-6 z"
         id="path5742"
         inkscape:connector-curvature="0"
         style="fill:#373535;fill-rule:nonzero" />
      <path
         d="m 271.83176,18.32308 c 0,1.00848 -0.11472,3.45245 -0.11472,3.83878 0,0.2728 -0.15805,0.42709 -0.31235,0.42709 -0.1543,0 -0.22952,-0.11481 -0.26904,-0.57769 l -0.0396,-0.35176 c -0.11594,-1.00847 -0.85413,-1.74415 -4.11154,-1.82191 L 264.2677,19.76105 V 33.6042 c 0,3.18333 0,5.78039 0.1543,7.13693 0.11862,0.969 0.27289,1.58986 1.32074,1.74785 0.46292,0.07406 1.24182,0.15309 1.54919,0.15309 0.23447,0 0.2728,0.15429 0.2728,0.27031 0,0.1567 -0.15427,0.27279 -0.54312,0.27279 -1.8602,0 -4.03381,-0.11609 -4.22885,-0.11609 -0.15427,0 -2.5181,0.11609 -3.52655,0.11609 -0.38763,0 -0.54196,-0.07902 -0.54196,-0.27279 0,-0.11602 0.0754,-0.22963 0.26917,-0.22963 0.30859,0 0.69858,-0.07896 1.00848,-0.15799 0.69864,-0.15429 0.89368,-0.81464 1.00961,-1.78363 0.15433,-1.35654 0.15433,-3.95359 0.15433,-7.13693 V 19.76105 l -3.37347,0.07654 c -2.13538,0.03828 -2.94997,0.2716 -3.45241,1.04675 -0.38753,0.58138 -0.42706,0.81463 -0.54182,1.04795 -0.0791,0.26911 -0.19504,0.30859 -0.35185,0.30859 -0.0764,0 -0.23206,-0.07903 -0.23206,-0.26911 0,-0.35176 0.69867,-3.3759 0.7382,-3.6487 l 4.53619,0.0025 h 9.77588 l 3.56726,-0.0025 z"
         id="path5746"
         inkscape:connector-curvature="0"
         style="fill:#373535;fill-rule:nonzero" />
      <path
         d="m 230.69772,19.49843 1.47136,-1.17264 c 0,0 -0.91222,0.04565 -1.71944,0.04565 -0.80728,0 -1.53058,-0.04565 -1.53058,-0.04565 l 0.73807,1.44664 c 0.14441,-0.20861 0.2679,-0.29374 0.47275,-0.34806 0.13829,-0.03579 0.39128,-0.02102 0.56784,0.07406"
         id="path5750"
         inkscape:connector-curvature="0"
         style="fill:#373535;fill-rule:nonzero" />
      <path
         d="m 64.57693,28.6514 h -8.38489 c -0.13326,0 -0.22089,-0.08762 -0.13326,-0.30858 l 3.86346,-11.85829 c 0.22102,-0.65665 0.4419,-0.65665 0.66039,0 l 4.17204,11.85829 c 0.04442,0.17532 0.04442,0.30858 -0.17773,0.30858 m 4.36588,0.52337 -6.99867,-18.22135 C 61.41582,9.59071 61.24177,9.37351 60.97639,9.37351 c -0.26291,0 -0.43695,0.26285 -0.96524,1.71326 l -9.96729,27.26779 c -0.79117,2.19588 -1.66883,3.8647 -3.69067,4.13004 -0.34933,0.04324 -0.9653,0.08521 -1.27261,0.08521 -0.21848,0 -0.39381,0.09131 -0.39381,0.26414 0,0.26294 0.26176,0.35424 0.83198,0.35424 2.06385,0 4.47948,-0.13327 4.96328,-0.13327 0.48512,0 2.37116,0.13327 3.42649,0.13327 0.39501,0 0.65797,-0.09131 0.65797,-0.35424 0,-0.17284 -0.13337,-0.26414 -0.43823,-0.26414 h -0.43944 c -0.74801,0 -1.67003,-0.39379 -1.67003,-1.2751 0,-0.78622 0.21974,-1.84037 0.61344,-2.94016 l 2.63653,-7.77511 c 0.0889,-0.21847 0.22102,-0.34806 0.43949,-0.34806 h 9.44024 c 0.22094,0 0.30978,0.08881 0.39742,0.26285 l 0.06297,0.17034 c 3.56969,9.55505 7.24433,23.42653 28.88107,26.45437 l 0.12464,0.01115 C 77.56961,54.04544 73.15564,39.44198 68.9428,29.17476"
         id="path5754"
         inkscape:connector-curvature="0"
         style="fill:#373535;fill-rule:nonzero" />
      <path
         d="m 143.92424,50.03229 c -19.67042,0 -28.85149,6.78021 -44.64482,7.37394 22.57854,-0.47154 28.0183,-4.5004 44.64482,-4.5004 17.65852,0 46.29515,7.48748 46.29515,7.48748 0,0 -25.7211,-10.36103 -46.29515,-10.36103"
         id="path5758"
         inkscape:connector-curvature="0"
         style="fill:#373535;fill-rule:nonzero" />
      <path
         d="m 0,14.1999 c 7.33938,-7.03447 37.09185,-7.03447 44.64361,0 V 31.53249 C 42.56982,52.72487 22.46129,61.02577 22.32178,61.07271 22.18104,61.11836 2.09471,52.75448 0,31.49301 Z"
         id="path5762"
         stroke-miterlimit="4"
         inkscape:connector-curvature="0"
         style="fill:none;stroke:#373535;stroke-width:0.65399998;stroke-miterlimit:4" />
      <path
         d="m 0,14.1999 c 7.33938,-7.03447 37.09185,-7.03447 44.64361,0 V 31.53249 C 42.56982,52.72487 22.46129,61.02577 22.32178,61.07271 22.18104,61.11836 2.09471,52.75448 0,31.49301 Z"
         id="path5766"
         inkscape:connector-curvature="0"
         style="fill:#fffbcd;fill-rule:nonzero" />
      <path
         d="m 0,14.1999 c 7.33938,-7.03447 37.09185,-7.03447 44.64361,0 V 31.53249 C 42.56982,52.72487 22.46129,61.02577 22.32178,61.07271 22.18104,61.11836 2.09471,52.75448 0,31.49301 Z"
         id="path5770"
         stroke-miterlimit="4"
         inkscape:connector-curvature="0"
         style="fill:none;stroke:#373535;stroke-width:0.65399998;stroke-miterlimit:4" />
      <path
         d="M 22.35945,28.36798 41.11026,43.60096 C 34.78927,55.67525 22.45449,61.05454 22.34589,61.09153 22.23722,61.12732 9.91607,56.01841 3.55427,43.60344 L 22.35944,28.36797 Z"
         id="path5774"
         inkscape:connector-curvature="0"
         style="fill:#77c14f;fill-rule:nonzero" />
      <path
         d="M 22.35945,28.36798 41.11026,43.60096 C 34.78927,55.67525 22.45449,61.05454 22.34589,61.09153 22.23722,61.12732 9.91607,56.01841 3.55427,43.60344 L 22.35944,28.36797 Z"
         id="path5778"
         stroke-miterlimit="4"
         inkscape:connector-curvature="0"
         style="fill:none;stroke:#373535;stroke-width:0.60699999;stroke-miterlimit:4" />
      <path
         d="m 12.68802,14.38726 c 0.50115,-0.24319 0.62338,-0.0617 0.62338,-0.0617 0,0 0.04816,0.43078 -0.06051,0.41843 -0.34806,-0.05312 -1.11332,0.04934 -1.11332,0.04934 0,0 0.0493,-0.16168 0.55045,-0.40607 m 8.31697,9.30568 c 0.09143,-0.34934 0.07287,-0.87023 -0.17153,-1.08991 -0.2444,-0.22466 -1.32944,-0.50115 -1.32944,-0.50115 -0.26043,-0.59374 1.42202,0.03579 1.42202,0.03579 0.0555,-0.92575 -1.14424,-1.13686 -1.77744,-0.91957 -1.43431,1.93544 -3.40799,0.1222 -3.40799,-0.54063 -0.12837,-2.38106 -1.92558,-3.61291 -2.53902,-3.86718 -0.61229,-0.25306 -1.09741,-0.49994 -1.09741,-0.49994 0,0 0.90972,0.36539 1.70222,0.13704 0.48626,-0.14194 1.5651,0.89117 1.7552,1.10845 -0.01115,-0.07654 -0.06539,-1.29853 -0.01604,-1.37755 -0.31359,-0.10246 -1.04799,0.02961 -1.38984,-0.15549 -0.10993,-0.0495 -0.17165,-0.13206 -0.12965,-0.26059 0,0 1.18498,0.21478 1.64785,0.12837 0.49494,-0.09507 0.85536,-0.33209 0.70975,-0.64557 -0.02719,0.36539 -0.52219,0.52337 -1.04177,0.4246 -0.52092,-0.10246 -1.18618,-0.41843 -1.18618,-0.41843 0,0 0.51959,-0.93562 1.28738,-0.33329 0,-0.43817 0.06787,-0.85659 0.18883,-0.96523 0.29128,-0.09877 0.60981,-0.27778 0.60981,-0.27778 -0.90363,-0.28877 -1.80094,0.29133 -2.00092,0.16544 -0.19991,-0.12469 -0.20366,-0.23701 -0.58138,-0.23701 -0.48632,0 -2.16866,0.69868 -2.16866,0.69868 -1.65406,0.09501 -2.16262,-1.21588 -2.16262,-1.21588 -0.64923,2.22428 1.18738,2.18112 1.18738,2.18112 -0.61344,0.08882 -1.16761,1.0356 -1.16761,1.0356 0.48506,-0.30361 1.19727,-0.22466 1.07383,-0.20492 -0.47023,0.08641 -0.72698,0.99861 -0.63935,0.90722 0.29002,-0.31348 0.71342,-0.31966 0.71342,-0.28756 0,0.33947 -0.42829,2.75383 -0.30738,3.02287 0.25555,0.574 0.85301,0.969 0.8776,1.57261 C 9.0714,23.29045 6.4879,19.83672 9.1776,17.19898 5.90413,12.55537 2.81454,14.01557 1.84064,13.94528 c 0.82824,0.67639 2.34278,3.58692 -0.12097,4.70773 1.88363,0.48511 1.8984,3.1315 1.24422,4.09432 1.89099,-0.1222 3.45248,1.45033 3.59935,2.20206 1.16889,-0.33947 3.04264,-1.74784 4.21279,-1.38493 -0.30858,0.05063 -1.18492,1.48739 -1.18492,1.48739 -2.27738,3.87954 -4.94971,3.90914 -5.24106,3.21422 -0.17653,-0.51847 0.78502,-1.41455 0.3703,-2.95996 0,0 0.46903,-0.14194 1.16774,0.89246 0,0 0.24928,-0.42218 0.04436,-0.82706 -0.97391,-1.90824 -3.82392,-2.15264 -4.04367,-1.74407 0.73814,0.10856 0.85415,0.83068 0.85415,1.47994 -0.04816,0.50853 -0.22337,1.44415 -0.07407,1.66512 0.33697,-1.07139 1.37381,-1.31209 1.37381,-1.31209 0.03459,1.37749 -1.98109,1.81693 -1.61699,3.84617 0.09879,0.62704 0.41478,1.11214 0.92208,1.44792 1.21958,0.50732 2.42673,0.81959 4.41777,-0.19136 0,0 -0.25675,0.27031 -0.44811,1.39729 0,0 -0.63941,-0.08512 -1.33185,0.28636 0.95661,0.10984 0.83685,0.03458 1.00351,0.38634 0.63941,1.33808 -0.20492,1.4306 0.03827,1.89227 0,0.24442 -0.22095,-0.38881 -0.26911,-0.19377 -0.44184,0.45422 -1.8453,0.09748 -1.97741,0.75044 0.15062,-0.05922 1.36892,-0.44803 2.07499,0.4518 -0.29255,1.03928 0.8257,1.79102 0.19498,2.68346 -0.19498,0.24441 1.07884,-0.72461 1.07884,-0.72461 -0.04816,-0.57769 0.07528,-1.13067 -0.24072,-1.68856 l 0.32962,0.02345 c 0.62325,0.58757 1.38863,0.7949 1.26514,1.80954 0.48759,-0.21727 0.66165,-0.49128 0.6851,-0.99861 -0.09493,-0.50725 -0.56161,-0.64182 -0.78135,-0.97879 0.21974,-0.19377 0.96897,-0.15179 1.33927,0.5764 0.31485,-0.23942 0.12223,-0.70229 0.17045,-1.03807 -0.31732,-0.72582 -1.2664,-0.38882 -1.87254,-0.65296 -1.17136,-0.17154 -0.19744,-0.64926 -0.41732,-1.39729 -0.07275,-1.1874 1.3641,-1.22936 1.99724,-1.98109 -0.33824,-1.26026 -0.74548,-1.67998 -0.40737,-2.18354 -0.04448,0.08641 -0.18389,0.43327 0.10366,0.9467 0.33329,0.60112 1.52683,0.20123 1.52683,0.20123 0.19142,0.78872 -1.03678,3.26727 -0.41472,3.30923 0.0062,-1.11334 2.45765,-1.62188 3.79692,-1.91073 l -0.1593,0.42829 c -0.14808,0.43575 0,0.74434 0.21968,1.12948 0.11602,-1.00109 0.15062,-1.18501 0.47035,-1.44544 0.80358,-1.01337 1.97741,-1.31956 2.97591,-2.14035 0.2679,-0.19506 0.77893,-0.26414 0.82582,-0.62952 -0.34071,-0.21721 -0.82582,-0.06907 -1.24055,-0.11851 -0.38881,0.14443 -0.68009,0.72581 -1.09481,0.62583 0.43695,-0.50732 0.87633,-0.99115 1.46017,-1.20594 -0.17033,-0.45798 -0.70721,-0.07285 -0.94914,-0.36539 -0.36662,-0.09259 -0.43949,0.41474 -0.58511,0.65545 -0.2679,0.33947 -0.56039,0.93931 -0.99977,0.91589 0.14808,-0.40856 0.51339,-0.69861 0.78129,-1.0344 l 0.21848,-0.53694 c -1.75152,-0.43327 -0.87513,1.57133 -1.67998,2.22307 -0.41472,0.04686 -0.85042,0.36412 -1.24049,0.16905 0.14694,-0.86647 0.46288,-1.66384 0.41351,-2.60692 -0.41351,-1.03928 -1.85031,-0.24063 -2.63033,-0.24063 0.90105,-1.06159 3.18704,-2.22187 3.71405,-4.62508 -0.98126,-0.32343 -1.29479,-0.75173 -1.65894,-1.40348 0.94799,1.30101 2.05517,1.16646 3.02786,1.48243 0,0 -1.05292,0.33329 -1.127,0.79866 1.34669,-0.70607 1.4319,-0.16793 2.18602,-0.31725 0.84679,-0.16168 1.32944,0.51471 1.64791,1.35534 0.05183,-0.04324 0.09258,-0.31356 0.13085,-0.75918 -0.20492,-0.74427 -0.61849,-1.00102 -0.61849,-1.00102 0.56287,-0.31725 1.07389,0.32832 1.7071,0.80973 m -5.53229,-4.73372 c 0.23698,0.39628 0.32462,0.54439 0.38392,1.21091 0,0 1.51454,-1.5861 2.49098,-3.9203 l 0.33698,-0.05183 c 1.10343,0.55425 1.49711,-0.17155 1.49711,-0.17155 -1.10597,0.50484 -1.4219,-0.66651 -1.30943,-0.88997 0.24314,-0.87392 0.45052,-1.76389 2.05884,-1.46149 -0.05671,-0.63563 -0.41225,-0.63193 -0.93805,-0.63193 -0.42852,-0.02343 -0.89984,0.29992 -1.23313,0.7023 l 0.0555,-0.67021 c 0.29388,-0.26293 0.90972,-0.40118 1.0824,-0.71224 -0.53798,-0.19746 -0.84427,0.06049 -1.37995,0.22835 -0.69124,0.25057 -0.5666,0.68633 -0.83553,1.00229 0,0 -0.25054,-0.57393 0.41846,-1.04426 0,0 -0.6135,-0.34686 -0.97392,0.38144 -0.56161,1.07507 0.11957,1.517 0.26658,2.33662 -0.27151,0.848 -0.62224,1.19358 -1.9207,3.69187"
         id="path5782"
         inkscape:connector-curvature="0"
         style="fill:#952d2e;fill-rule:nonzero" />
      <path
         d="m 31.40888,14.74715 c -0.10861,0.01356 -0.05919,-0.41843 -0.05919,-0.41843 0,0 0.12217,-0.18149 0.62325,0.0617 0.50115,0.2444 0.55058,0.40607 0.55058,0.40607 0,0 -0.76525,-0.10246 -1.11464,-0.04934 m 7.31968,10.62764 c -0.20613,0.40486 0.04321,0.82827 0.04321,0.82827 0.69979,-1.0356 1.16888,-0.89366 1.16888,-0.89366 -0.41592,1.54542 0.54677,2.4415 0.3703,2.95996 -0.29255,0.69613 -2.96489,0.66531 -5.24221,-3.21422 0,0 -0.87639,-1.43806 -1.18377,-1.4874 1.17015,-0.3629 3.04269,1.04547 4.21279,1.38494 0.14693,-0.75172 1.7071,-2.32425 3.59941,-2.20206 -0.65545,-0.96283 -0.63947,-3.60922 1.24416,-4.09304 -2.46374,-1.12208 -0.95046,-4.03263 -0.12096,-4.7078 -0.97512,0.06908 -4.06344,-1.39112 -7.33691,3.25249 2.68837,2.63774 0.10614,6.09147 -1.88858,4.11527 0.02345,-0.60361 0.62218,-0.99861 0.87639,-1.57381 0.12223,-0.26904 -0.30738,-2.6834 -0.30738,-3.02287 0,-0.03209 0.42466,-0.02592 0.71348,0.28756 0.0889,0.0926 -0.16785,-0.82081 -0.63941,-0.90722 -0.12217,-0.01854 0.58878,-0.09748 1.07389,0.20492 0,0 -0.55299,-0.94549 -1.16647,-1.0356 0,0 1.83547,0.04317 1.18618,-2.18112 0,0 -0.50723,1.31088 -2.1625,1.21589 0,0 -1.68118,-0.69869 -2.16751,-0.69869 -0.37772,0 -0.38266,0.11233 -0.58143,0.23701 -0.20112,0.12589 -1.09729,-0.45422 -2.0008,-0.16544 0,0 0.31841,0.179 0.60975,0.27778 0.1197,0.10864 0.18762,0.52827 0.18762,0.96523 0.76899,-0.60233 1.28864,0.33329 1.28864,0.33329 0,0 -0.66533,0.31597 -1.18618,0.41843 -0.51972,0.09997 -1.01586,-0.05801 -1.04177,-0.4246 -0.14573,0.31348 0.2148,0.5505 0.70848,0.64557 0.46414,0.08641 1.64906,-0.12837 1.64906,-0.12837 0.04075,0.12837 -0.02097,0.21102 -0.12959,0.26165 -0.34185,0.1839 -1.07758,0.05183 -1.3911,0.15429 0.05063,0.07903 -0.0037,1.30222 -0.01604,1.37755 0.19136,-0.21727 1.26887,-1.24918 1.75647,-1.10724 0.79243,0.22715 1.70215,-0.13825 1.70215,-0.13825 0,0 -0.48512,0.24689 -1.09861,0.49995 -0.61223,0.25426 -2.4107,1.4874 -2.53775,3.86717 0,0.66298 -1.975,2.47606 -3.40799,0.54078 -0.63321,-0.21742 -1.83306,-0.0062 -1.77876,0.91957 0,0 1.68366,-0.62952 1.42202,-0.03579 0,0 -1.08498,0.27649 -1.32824,0.50115 -0.24434,0.21968 -0.26283,0.74057 -0.17153,1.08991 0.63321,-0.48141 1.14423,-1.12698 1.7059,-0.80974 0,0 -0.41225,0.25675 -0.61843,1.00229 0.03827,0.44435 0.08022,0.71345 0.13206,0.75791 0.31726,-0.84063 0.80111,-1.5158 1.64785,-1.35534 0.75296,0.14939 0.83812,-0.38881 2.18601,0.31724 -0.07401,-0.46536 -1.1282,-0.79866 -1.1282,-0.79866 0.97271,-0.31597 2.08114,-0.18142 3.02914,-1.48243 -0.36537,0.65175 -0.67768,1.08125 -1.659,1.40347 0.52706,2.40321 2.81186,3.56349 3.71417,4.62508 -0.78014,0 -2.21693,-0.79745 -2.63165,0.24063 -0.0481,0.94308 0.2679,1.74166 0.41472,2.60692 -0.39121,0.19506 -0.82576,-0.12092 -1.24049,-0.16785 -0.80479,-0.65296 0.07166,-2.65755 -1.68118,-2.22428 l 0.21981,0.53694 c 0.26778,0.33578 0.63321,0.62704 0.78003,1.0344 -0.43938,0.02344 -0.73192,-0.57641 -0.99983,-0.91589 -0.14441,-0.24071 -0.21716,-0.74803 -0.58504,-0.65544 -0.24072,0.29255 -0.77767,-0.0926 -0.9492,0.36539 0.58505,0.21479 1.02454,0.69861 1.46017,1.20594 -0.41339,0.09997 -0.70474,-0.48012 -1.09354,-0.62583 -0.41478,0.04943 -0.89984,-0.09869 -1.24055,0.11851 0.04696,0.3666 0.55792,0.43575 0.82576,0.62952 0.99736,0.82209 2.17118,1.12818 2.97603,2.14035 0.31847,0.26046 0.353,0.44434 0.47024,1.44665 0.21848,-0.38634 0.36663,-0.69493 0.21981,-1.13067 l -0.16051,-0.4283 c 1.33921,0.29004 3.79066,0.79617 3.7968,1.91073 0.6221,-0.04197 -0.60482,-2.52051 -0.41351,-3.30922 0,0 1.19239,0.3999 1.52689,-0.19994 0.28761,-0.51471 0.14688,-0.86157 0.10367,-0.94798 0.33823,0.50356 -0.07034,0.92326 -0.40731,2.18353 0.63326,0.75172 2.06873,0.7949 1.99718,1.9811 -0.21969,0.74802 0.75416,1.22574 -0.41726,1.39849 -0.60728,0.26294 -1.55648,-0.07278 -1.87243,0.65176 0.0481,0.33698 -0.14573,0.79865 0.17033,1.03808 0.37024,-0.72822 1.11953,-0.77018 1.33801,-0.57641 -0.21848,0.33698 -0.68637,0.47154 -0.78135,0.97879 0.02344,0.50732 0.19876,0.78133 0.68624,0.99861 -0.12337,-1.01465 0.64188,-1.222 1.26525,-1.80834 l 0.3295,-0.02343 c -0.31594,0.55667 -0.19245,1.10965 -0.2406,1.68735 0,0 1.27262,0.96885 1.07752,0.72573 -0.62952,-0.89366 0.4888,-1.64546 0.1951,-2.68339 0.70728,-0.90105 1.92558,-0.5123 2.07608,-0.45302 -0.13206,-0.65175 -1.53545,-0.29623 -1.97862,-0.75044 -0.0481,-0.19505 -0.2691,0.43818 -0.2691,0.19378 0.24319,-0.46167 -0.59981,-0.55299 0.03948,-1.89227 0.16665,-0.35176 0.04677,-0.2765 1.00229,-0.38513 -0.69244,-0.3727 -1.33185,-0.28635 -1.33185,-0.28635 -0.19148,-1.12819 -0.44697,-1.3985 -0.44697,-1.3985 1.9899,1.01217 3.19711,0.69869 4.41777,0.19136 0.50729,-0.33578 0.82323,-0.82089 0.92214,-1.44665 0.36295,-2.03051 -1.6528,-2.46996 -1.61711,-3.84745 0,0 1.03557,0.24071 1.37259,1.31209 0.14942,-0.22096 -0.02592,-1.15659 -0.0728,-1.66512 0,-0.64926 0.11596,-1.3701 0.85427,-1.47994 -0.21968,-0.40856 -3.06981,-0.16416 -4.04366,1.74407 M 25.78897,15.13981 c 0.11234,0.22345 -0.20372,1.39481 -1.30973,0.88997 0,0 0.39242,0.72453 1.49717,0.17034 l 0.33571,0.05432 c 0.9777,2.33292 2.49218,3.91901 2.49218,3.91901 0.05804,-0.66652 0.14682,-0.81464 0.38386,-1.20963 -1.29853,-2.49957 -1.65026,-2.84514 -1.92058,-3.69315 0.14561,-0.8196 0.82817,-1.26153 0.26664,-2.33661 -0.36174,-0.72829 -0.97391,-0.38144 -0.97391,-0.38144 0.669,0.47033 0.4184,1.04426 0.4184,1.04426 -0.27031,-0.31597 -0.14561,-0.75172 -0.83565,-1.00229 -0.53574,-0.16785 -0.8418,-0.4246 -1.38121,-0.22835 0.1728,0.31107 0.78997,0.44932 1.08251,0.71224 l 0.05684,0.67021 c -0.33329,-0.40238 -0.80485,-0.72573 -1.23434,-0.7023 -0.52471,0 -0.88013,-0.0037 -0.9369,0.63193 1.60832,-0.3024 1.81572,0.58757 2.0589,1.46149"
         id="path5786"
         inkscape:connector-curvature="0"
         style="fill:#952d2e;fill-rule:nonzero" />
      <path
         d="m 20.93326,50.59009 c 1.35657,0.77147 1.84283,0.31597 2.62544,0.0074 1.09246,-0.42709 9.97964,-0.23325 9.97964,-0.23325 L 29.86498,39.0947 28.54295,38.16029 c 0,0 -2.39828,-1.3985 -4.2375,-1.3985 -1.8403,0 -2.05142,1.15041 -2.05142,1.15041 0,0 -0.21113,-1.15041 -2.05021,-1.15041 -1.84169,0 -4.261,1.38743 -4.261,1.38743 l -1.29473,0.97261 -3.69814,11.21031 c 0,0 9.96362,0.24561 9.98333,0.25796"
         id="path5790"
         inkscape:connector-curvature="0"
         style="fill:#ffffff;fill-rule:nonzero" />
      <path
         d="m 20.93326,50.59009 c 1.35657,0.77147 1.84283,0.31597 2.62544,0.0074 1.09246,-0.42709 9.97964,-0.23325 9.97964,-0.23325 L 29.86498,39.0947 28.54295,38.16029 c 0,0 -2.39828,-1.3985 -4.2375,-1.3985 -1.8403,0 -2.05142,1.15041 -2.05142,1.15041 0,0 -0.21113,-1.15041 -2.05021,-1.15041 -1.84169,0 -4.261,1.38743 -4.261,1.38743 l -1.29473,0.97261 -3.69814,11.21031 c 0,0 9.96362,0.24561 9.98333,0.25796 z"
         id="path5794"
         stroke-miterlimit="4"
         inkscape:connector-curvature="0"
         style="fill:none;stroke:#373535;stroke-width:0.241;stroke-miterlimit:4" />
      <path
         d="m 15.94257,38.14905 c 0,0 -2.40195,10.38453 -2.44023,10.36472 -0.34571,0.63082 -2.55143,1.77873 -2.55143,1.77873"
         id="path5798"
         stroke-miterlimit="4"
         inkscape:connector-curvature="0"
         style="fill:none;stroke:#373535;stroke-width:0.18099999;stroke-miterlimit:4" />
      <path
         d="M 22.23083,37.61468 V 49.42363"
         id="path5802"
         stroke-miterlimit="4"
         inkscape:connector-curvature="0"
         style="fill:none;stroke:#373535;stroke-width:0.361;stroke-miterlimit:4" />
      <path
         d="m 28.59961,38.28355 c 0,0 2.36869,10.19069 2.4045,10.16726 0.4962,0.79 2.55632,1.78363 2.55632,1.78363 m -2.55632,-1.75651 c 0,0 -8.48108,-1.86755 -8.74772,1.39609 l -0.0025,0.06787 C 21.98361,46.67335 13.5024,48.54091 13.5024,48.54091"
         id="path5806"
         stroke-miterlimit="4"
         inkscape:connector-curvature="0"
         style="fill:none;stroke:#373535;stroke-width:0.18099999;stroke-miterlimit:4" />
      <path
         d="m 23.71831,50.82793 c 0.02959,-0.02343 10.07096,-0.28146 10.10188,-0.28146 0,-0.05922 -0.58023,-0.32832 -0.58023,-0.32463 -4.4658,0 -8.43913,-1.29356 -9.65738,0.1185 -0.02965,0 -1.32818,-0.52947 -1.32818,-0.52947 0,0 -1.26887,0.52089 -1.30099,0.52089 -1.21457,-1.40717 -5.1879,-0.11361 -9.65624,-0.11361 0,-0.01236 -0.57769,0.26173 -0.57769,0.32094 0.02719,0 10.11543,0.24809 10.14629,0.27649 0.7233,0.64437 2.12556,0.66042 2.85254,0.01236"
         id="path5810"
         inkscape:connector-curvature="0"
         style="fill:#373535;fill-rule:nonzero" />
      <path
         d="m 17.85615,47.06601 c -1.30221,0.0062 -1.88978,0.15799 -3.3784,0.46658 0.02471,-0.02841 1.02454,-4.67563 1.02454,-4.64731 0.76652,-0.2789 1.76882,-0.48013 2.8007,-0.36162 0,0 -0.47523,4.53001 -0.44684,4.54236"
         id="path5814"
         inkscape:connector-curvature="0"
         style="fill:#9ea0a3;fill-rule:nonzero" />
      <path
         d="m 21.31297,45.10246 c -0.51838,-0.30738 -1.93661,-0.47274 -2.76117,-0.20121 0.0037,0 0.61344,-7.28256 0.61344,-7.25545 0.44805,-0.08641 1.70957,-0.2777 2.29215,0.30489 l -0.14441,7.15177 z"
         id="path5818"
         inkscape:connector-curvature="0"
         style="fill:#9ea0a3;fill-rule:nonzero" />
      <path
         d="m 18.33808,42.27421 c -1.24916,-0.1259 -1.91196,0.09748 -2.75623,0.31477 0.02833,-0.02471 0.79491,-4.0104 0.79491,-3.982 0.6986,-0.38017 1.45529,-0.65544 2.38846,-0.88499 0,0 -0.39869,4.55223 -0.42714,4.55223"
         id="path5822"
         inkscape:connector-curvature="0"
         style="fill:#9ea0a3;fill-rule:nonzero" />
      <path
         d="m 21.30417,47.49226 c -0.76157,-0.29503 -1.74658,-0.45918 -2.9488,-0.45918 -0.0013,-0.0025 0.18509,-1.89348 0.18509,-1.90214 0.79985,-0.33571 2.38846,-0.07528 2.76491,0.2062 0,0 -0.0037,2.15144 -0.0012,2.15512"
         id="path5826"
         inkscape:connector-curvature="0"
         style="fill:#9ea0a3;fill-rule:nonzero" />
      <path
         d="m 26.20591,43.85652 c 0.63321,-0.10984 2.32307,0.01974 3.01545,0.38882 -0.02839,-0.02712 -1.18739,-5.54714 -1.18739,-5.51874 -0.79865,-0.45173 -1.51453,-0.77146 -2.44644,-1.00471 0,0 0.58998,6.13463 0.61837,6.13463"
         id="path5830"
         inkscape:connector-curvature="0"
         style="fill:#9ea0a3;fill-rule:nonzero" />
      <path
         d="m 23.06226,39.79527 c 0.27646,-0.27649 1.53304,-0.46168 2.3206,-0.21351 -0.0025,0 -0.1555,-1.92684 -0.16171,-1.93552 -0.44932,-0.08633 -1.63917,-0.25425 -2.15889,0.26542 0,0 0.0074,1.88729 0,1.88359"
         id="path5834"
         inkscape:connector-curvature="0"
         style="fill:#9ea0a3;fill-rule:nonzero" />
      <path
         d="m 23.10066,47.50454 c 1.07758,-0.5456 1.8861,-0.4308 2.93656,-0.44434 -0.02471,-0.02719 -0.6678,-7.2974 -0.6678,-7.26909 -0.5431,-0.18142 -1.62935,-0.25667 -2.28847,0.20123 0,0 0.04816,7.52454 0.01971,7.5122"
         id="path5838"
         inkscape:connector-curvature="0"
         style="fill:#9ea0a3;fill-rule:nonzero" />
      <path
         d="m 26.52999,47.06042 c 0.84065,0 1.82933,0.10616 3.35128,0.3654 -0.02718,-0.0284 -0.62585,-2.95131 -0.62585,-2.92418 -0.63568,-0.3666 -2.65016,-0.5172 -3.01425,-0.40606 0,0 0.26169,2.96484 0.28882,2.96484"
         id="path5842"
         inkscape:connector-curvature="0"
         style="fill:#9ea0a3;fill-rule:nonzero" />
      <path
         d="m 0,14.20243 c 7.33938,-7.03447 37.09185,-7.03447 44.64361,0 V 31.53502 C 42.56982,52.7274 22.46129,61.02832 22.32178,61.07524 22.18104,61.12089 2.09471,52.75701 0,31.49554 Z m 3.55488,29.40318 18.80517,-15.2354 18.75081,15.23292"
         id="path5846"
         stroke-miterlimit="4"
         inkscape:connector-curvature="0"
         style="fill:none;stroke:#373535;stroke-width:0.65399998;stroke-miterlimit:4" />
    </g>
    <flowRoot
       xml:space="preserve"
       id="flowRoot4116"
       style="font-style:normal;font-weight:normal;font-size:40px;line-height:1.25;font-family:'DejaVu Serif';letter-spacing:0px;word-spacing:0px;fill:#000000;fill-opacity:1;stroke:none;-inkscape-font-specification:'DejaVu Serif';font-stretch:normal;font-variant:normal;"
       transform="matrix(0.26458333,0,0,0.26458333,0,-544)"><flowRegion
         id="flowRegion4118"
         style="-inkscape-font-specification:'DejaVu Serif';font-family:'DejaVu Serif';font-weight:normal;font-style:normal;font-stretch:normal;font-variant:normal;"><rect
           id="rect4120"
           width="1973.838"
           height="212.13203"
           x="125.25892"
           y="2926.0447"
           style="-inkscape-font-specification:'DejaVu Serif';font-family:'DejaVu Serif';font-weight:normal;font-style:normal;font-stretch:normal;font-variant:normal" /></flowRegion><flowPara
         id="flowPara4122"
         style="font-size:16.0000002px;-inkscape-font-specification:'DejaVu Serif';font-family:'DejaVu Serif';font-weight:normal;font-style:normal;font-stretch:normal;font-variant:normal;">1. https://en.wikipedia.org/wiki/File:Aberystwyth_University_logo.svg</flowPara></flowRoot>    <rect
       style="fill:#cccccc;stroke-width:0.26144195"
       id="rect4140"
       width="436.68784"
       height="135.77293"
       x="23.584179"
       y="-421.52777" />
    <rect
       id="rect4130"
       width="349.05402"
       height="14.967093"
       x="22.985178"
       y="-435.83157"
       style="fill:#4d4d4d;stroke-width:0.26458332" />
    <flowRoot
       xml:space="preserve"
       id="flowRoot4132"
       style="font-style:normal;font-weight:normal;font-size:40px;line-height:1.25;font-family:sans-serif;letter-spacing:0px;word-spacing:0px;fill:#000000;fill-opacity:1;stroke:none"
       transform="matrix(0.26458333,0,0,0.26458333,8.5526249,-542.93092)"><flowRegion
         id="flowRegion4134"><rect
           id="rect4136"
           width="1319.2593"
           height="56.568573"
           x="86.873116"
           y="416.82568" /></flowRegion><flowPara
         id="flowPara4138"
         style="font-style:normal;font-variant:normal;font-weight:normal;font-stretch:normal;font-family:'DejaVu Serif';-inkscape-font-specification:'DejaVu Serif';fill:#ffffff">What is this project about?</flowPara></flowRoot>    <flowRoot
       xml:space="preserve"
       id="flowRoot4146"
       style="font-style:normal;font-weight:normal;font-size:40px;line-height:1.25;font-family:sans-serif;letter-spacing:0px;word-spacing:0px;fill:#000000;fill-opacity:1;stroke:none"
       transform="matrix(0.26458333,0,0,0.26458333,0,-544)"><flowRegion
         id="flowRegion4148"><rect
           id="rect4150"
           width="1650.4736"
           height="818.22357"
           x="89.137054"
           y="462.88718" /></flowRegion><flowPara
         id="flowPara4152"
         style="font-style:normal;font-variant:normal;font-weight:normal;font-stretch:normal;font-size:32px;font-family:'DejaVu Serif';-inkscape-font-specification:'DejaVu Serif'">Researchers at Aberystwyth University have been studying three species of yeast, <flowSpan
   style="font-style:italic"
   id="flowSpan4178">Candida Tropicalis</flowSpan>, <flowSpan
   style="font-style:italic"
   id="flowSpan4176">Candida Boidinii</flowSpan>, and <flowSpan
   style="font-style:italic"
   id="flowSpan4174">Candida Shehatae</flowSpan>. <flowSpan
   style="font-style:italic"
   id="flowSpan4180">Candida Tropicalis</flowSpan> is very good at metabolising Arabinose &amp; Xylose, however the two conflict and the end product isn't that useful. <flowSpan
   style="font-style:italic"
   id="flowSpan4182">Candida Boidinii</flowSpan> doesn't process Arabinose, for an unknown reason, but does metabolise Xylose just at a much slower rate.</flowPara><flowPara
         id="flowPara4154"
         style="font-style:normal;font-variant:normal;font-weight:normal;font-stretch:normal;font-size:32px;font-family:'DejaVu Serif';-inkscape-font-specification:'DejaVu Serif'" /><flowPara
         id="flowPara4156"
         style="font-style:normal;font-variant:normal;font-weight:normal;font-stretch:normal;font-size:32px;font-family:'DejaVu Serif';-inkscape-font-specification:'DejaVu Serif'">Determing what genes cause <flowSpan
   style="font-style:italic"
   id="flowSpan4184">Candida Boidinii</flowSpan> to not react with Arabinose, and  modifying <flowSpan
   style="font-style:italic"
   id="flowSpan4186">Candida Tropicalis</flowSpan> to have the same set of genes, might enable <flowSpan
   style="font-style:italic"
   id="flowSpan4188">Candida Topicalis</flowSpan> to produce Xylitol, an anti-bacterial sugar, cheaper and easier than before. One other exciting possibility is using it to create an artificial sweetener that can be used by diabetics.</flowPara></flowRoot>    <flowRoot
       xml:space="preserve"
       id="flowRoot4166"
       style="fill:black;fill-opacity:1;stroke:none;font-family:sans-serif;font-style:normal;font-weight:normal;font-size:40px;line-height:1.25;letter-spacing:0px;word-spacing:0px"><flowRegion
         id="flowRegion4168"><rect
           id="rect4170"
           width="644.47736"
           height="280.7413"
           x="86.873116"
           y="465.39413" /></flowRegion><flowPara
         id="flowPara4172"></flowPara></flowRoot>  </g>
</svg>
